<mxfile host="Electron" agent="Mozilla/5.0 (Macintosh; Intel Mac OS X 10_15_7) AppleWebKit/537.36 (KHTML, like Gecko) draw.io/27.0.5 Chrome/134.0.6998.205 Electron/35.3.0 Safari/537.36" version="27.0.5">
  <diagram name="Page-1" id="IRHE7lxFP3pM3n0KE10_">
    <mxGraphModel dx="1306" dy="2029" grid="1" gridSize="10" guides="1" tooltips="1" connect="1" arrows="1" fold="1" page="1" pageScale="1" pageWidth="850" pageHeight="1100" math="0" shadow="0">
      <root>
        <mxCell id="0" />
        <mxCell id="1" parent="0" />
        <mxCell id="9uR6d-uMpD3ZoMTiej-W-8" style="edgeStyle=orthogonalEdgeStyle;rounded=0;orthogonalLoop=1;jettySize=auto;html=1;" parent="1" source="9uR6d-uMpD3ZoMTiej-W-1" target="9uR6d-uMpD3ZoMTiej-W-6" edge="1">
          <mxGeometry relative="1" as="geometry" />
        </mxCell>
        <mxCell id="9uR6d-uMpD3ZoMTiej-W-1" value="user scans QR code" style="rounded=1;whiteSpace=wrap;html=1;absoluteArcSize=1;arcSize=14;strokeWidth=2;fillColor=#d5e8d4;strokeColor=#82b366;" parent="1" vertex="1">
          <mxGeometry x="80" y="190" width="100" height="100" as="geometry" />
        </mxCell>
        <mxCell id="9uR6d-uMpD3ZoMTiej-W-9" style="edgeStyle=orthogonalEdgeStyle;rounded=0;orthogonalLoop=1;jettySize=auto;html=1;" parent="1" source="9uR6d-uMpD3ZoMTiej-W-2" edge="1">
          <mxGeometry relative="1" as="geometry">
            <mxPoint x="310" y="330" as="targetPoint" />
          </mxGeometry>
        </mxCell>
        <mxCell id="9uR6d-uMpD3ZoMTiej-W-2" value="user enters SP link with code" style="rounded=1;whiteSpace=wrap;html=1;absoluteArcSize=1;arcSize=14;strokeWidth=2;fillColor=#d5e8d4;strokeColor=#82b366;" parent="1" vertex="1">
          <mxGeometry x="80" y="360" width="100" height="100" as="geometry" />
        </mxCell>
        <mxCell id="9uR6d-uMpD3ZoMTiej-W-15" style="edgeStyle=orthogonalEdgeStyle;rounded=0;orthogonalLoop=1;jettySize=auto;html=1;entryX=0.5;entryY=0;entryDx=0;entryDy=0;" parent="1" source="9uR6d-uMpD3ZoMTiej-W-3" target="9uR6d-uMpD3ZoMTiej-W-14" edge="1">
          <mxGeometry relative="1" as="geometry" />
        </mxCell>
        <mxCell id="9uR6d-uMpD3ZoMTiej-W-29" style="edgeStyle=orthogonalEdgeStyle;rounded=0;orthogonalLoop=1;jettySize=auto;html=1;entryX=0;entryY=0.5;entryDx=0;entryDy=0;" parent="1" source="9uR6d-uMpD3ZoMTiej-W-3" target="9uR6d-uMpD3ZoMTiej-W-26" edge="1">
          <mxGeometry relative="1" as="geometry" />
        </mxCell>
        <mxCell id="9uR6d-uMpD3ZoMTiej-W-3" value="user has account?" style="strokeWidth=2;html=1;shape=mxgraph.flowchart.decision;whiteSpace=wrap;" parent="1" vertex="1">
          <mxGeometry x="410" y="280" width="100" height="100" as="geometry" />
        </mxCell>
        <mxCell id="9uR6d-uMpD3ZoMTiej-W-6" value="" style="shape=waypoint;sketch=0;fillStyle=solid;size=6;pointerEvents=1;points=[];fillColor=none;resizable=0;rotatable=0;perimeter=centerPerimeter;snapToPoint=1;" parent="1" vertex="1">
          <mxGeometry x="300" y="320" width="20" height="20" as="geometry" />
        </mxCell>
        <mxCell id="9uR6d-uMpD3ZoMTiej-W-7" style="edgeStyle=orthogonalEdgeStyle;rounded=0;orthogonalLoop=1;jettySize=auto;html=1;entryX=0;entryY=0.5;entryDx=0;entryDy=0;entryPerimeter=0;" parent="1" source="9uR6d-uMpD3ZoMTiej-W-6" target="9uR6d-uMpD3ZoMTiej-W-3" edge="1">
          <mxGeometry relative="1" as="geometry" />
        </mxCell>
        <mxCell id="9uR6d-uMpD3ZoMTiej-W-75" style="edgeStyle=orthogonalEdgeStyle;rounded=0;orthogonalLoop=1;jettySize=auto;html=1;entryX=0;entryY=0.5;entryDx=0;entryDy=0;" parent="1" source="9uR6d-uMpD3ZoMTiej-W-10" target="9uR6d-uMpD3ZoMTiej-W-74" edge="1">
          <mxGeometry relative="1" as="geometry" />
        </mxCell>
        <mxCell id="9uR6d-uMpD3ZoMTiej-W-10" value="redirect to signup" style="rounded=1;whiteSpace=wrap;html=1;absoluteArcSize=1;arcSize=14;strokeWidth=2;" parent="1" vertex="1">
          <mxGeometry x="410" y="480" width="100" height="100" as="geometry" />
        </mxCell>
        <mxCell id="9uR6d-uMpD3ZoMTiej-W-16" style="edgeStyle=orthogonalEdgeStyle;rounded=0;orthogonalLoop=1;jettySize=auto;html=1;entryX=0.5;entryY=0;entryDx=0;entryDy=0;" parent="1" source="9uR6d-uMpD3ZoMTiej-W-14" target="9uR6d-uMpD3ZoMTiej-W-10" edge="1">
          <mxGeometry relative="1" as="geometry" />
        </mxCell>
        <mxCell id="9uR6d-uMpD3ZoMTiej-W-14" value="no" style="text;html=1;align=center;verticalAlign=middle;whiteSpace=wrap;rounded=0;" parent="1" vertex="1">
          <mxGeometry x="430" y="410" width="60" height="30" as="geometry" />
        </mxCell>
        <mxCell id="9uR6d-uMpD3ZoMTiej-W-45" style="edgeStyle=orthogonalEdgeStyle;rounded=0;orthogonalLoop=1;jettySize=auto;html=1;entryX=0;entryY=0.5;entryDx=0;entryDy=0;" parent="1" source="9uR6d-uMpD3ZoMTiej-W-17" target="9uR6d-uMpD3ZoMTiej-W-44" edge="1">
          <mxGeometry relative="1" as="geometry" />
        </mxCell>
        <mxCell id="9uR6d-uMpD3ZoMTiej-W-17" value="pantry link page" style="rounded=1;whiteSpace=wrap;html=1;absoluteArcSize=1;arcSize=14;strokeWidth=2;" parent="1" vertex="1">
          <mxGeometry x="1330" y="280" width="100" height="100" as="geometry" />
        </mxCell>
        <mxCell id="9uR6d-uMpD3ZoMTiej-W-23" style="edgeStyle=orthogonalEdgeStyle;rounded=0;orthogonalLoop=1;jettySize=auto;html=1;entryX=0;entryY=0.5;entryDx=0;entryDy=0;" parent="1" source="9uR6d-uMpD3ZoMTiej-W-20" target="9uR6d-uMpD3ZoMTiej-W-17" edge="1">
          <mxGeometry relative="1" as="geometry" />
        </mxCell>
        <mxCell id="9uR6d-uMpD3ZoMTiej-W-20" value="" style="shape=waypoint;sketch=0;fillStyle=solid;size=6;pointerEvents=1;points=[];fillColor=none;resizable=0;rotatable=0;perimeter=centerPerimeter;snapToPoint=1;" parent="1" vertex="1">
          <mxGeometry x="1220" y="320" width="20" height="20" as="geometry" />
        </mxCell>
        <mxCell id="9uR6d-uMpD3ZoMTiej-W-32" style="edgeStyle=orthogonalEdgeStyle;rounded=0;orthogonalLoop=1;jettySize=auto;html=1;entryX=0.5;entryY=1;entryDx=0;entryDy=0;" parent="1" source="9uR6d-uMpD3ZoMTiej-W-24" target="9uR6d-uMpD3ZoMTiej-W-28" edge="1">
          <mxGeometry relative="1" as="geometry" />
        </mxCell>
        <mxCell id="9uR6d-uMpD3ZoMTiej-W-34" style="edgeStyle=orthogonalEdgeStyle;rounded=0;orthogonalLoop=1;jettySize=auto;html=1;entryX=0;entryY=0.5;entryDx=0;entryDy=0;" parent="1" source="9uR6d-uMpD3ZoMTiej-W-24" target="9uR6d-uMpD3ZoMTiej-W-27" edge="1">
          <mxGeometry relative="1" as="geometry" />
        </mxCell>
        <mxCell id="9uR6d-uMpD3ZoMTiej-W-24" value="last time took survey" style="strokeWidth=2;html=1;shape=mxgraph.flowchart.decision;whiteSpace=wrap;" parent="1" vertex="1">
          <mxGeometry x="1330" y="32" width="100" height="100" as="geometry" />
        </mxCell>
        <mxCell id="9uR6d-uMpD3ZoMTiej-W-25" style="edgeStyle=orthogonalEdgeStyle;rounded=0;orthogonalLoop=1;jettySize=auto;html=1;entryX=0.5;entryY=1;entryDx=0;entryDy=0;entryPerimeter=0;" parent="1" source="9uR6d-uMpD3ZoMTiej-W-17" target="9uR6d-uMpD3ZoMTiej-W-24" edge="1">
          <mxGeometry relative="1" as="geometry" />
        </mxCell>
        <mxCell id="9uR6d-uMpD3ZoMTiej-W-26" value="yes" style="text;html=1;align=center;verticalAlign=middle;whiteSpace=wrap;rounded=0;" parent="1" vertex="1">
          <mxGeometry x="540" y="315" width="60" height="30" as="geometry" />
        </mxCell>
        <mxCell id="9uR6d-uMpD3ZoMTiej-W-36" style="edgeStyle=orthogonalEdgeStyle;rounded=0;orthogonalLoop=1;jettySize=auto;html=1;entryX=0;entryY=0.5;entryDx=0;entryDy=0;" parent="1" source="9uR6d-uMpD3ZoMTiej-W-27" target="9uR6d-uMpD3ZoMTiej-W-35" edge="1">
          <mxGeometry relative="1" as="geometry" />
        </mxCell>
        <mxCell id="9uR6d-uMpD3ZoMTiej-W-27" value="&amp;gt;= 7days" style="text;html=1;align=center;verticalAlign=middle;whiteSpace=wrap;rounded=0;" parent="1" vertex="1">
          <mxGeometry x="1470" y="67" width="60" height="30" as="geometry" />
        </mxCell>
        <mxCell id="9uR6d-uMpD3ZoMTiej-W-33" style="edgeStyle=orthogonalEdgeStyle;rounded=0;orthogonalLoop=1;jettySize=auto;html=1;entryX=0.5;entryY=1;entryDx=0;entryDy=0;" parent="1" source="9uR6d-uMpD3ZoMTiej-W-28" target="9uR6d-uMpD3ZoMTiej-W-31" edge="1">
          <mxGeometry relative="1" as="geometry" />
        </mxCell>
        <mxCell id="9uR6d-uMpD3ZoMTiej-W-28" value="&amp;lt; 7 days" style="text;html=1;align=center;verticalAlign=middle;whiteSpace=wrap;rounded=0;" parent="1" vertex="1">
          <mxGeometry x="1350" y="-38" width="60" height="30" as="geometry" />
        </mxCell>
        <mxCell id="9uR6d-uMpD3ZoMTiej-W-31" value="no action available;&lt;div&gt;show message&lt;/div&gt;" style="rounded=1;whiteSpace=wrap;html=1;absoluteArcSize=1;arcSize=14;strokeWidth=2;fillColor=#f8cecc;strokeColor=#b85450;" parent="1" vertex="1">
          <mxGeometry x="1330" y="-178" width="100" height="100" as="geometry" />
        </mxCell>
        <mxCell id="9uR6d-uMpD3ZoMTiej-W-38" style="edgeStyle=orthogonalEdgeStyle;rounded=0;orthogonalLoop=1;jettySize=auto;html=1;" parent="1" source="9uR6d-uMpD3ZoMTiej-W-35" target="9uR6d-uMpD3ZoMTiej-W-37" edge="1">
          <mxGeometry relative="1" as="geometry" />
        </mxCell>
        <mxCell id="9uR6d-uMpD3ZoMTiej-W-35" value="get latest survey for that pantry link" style="rounded=1;whiteSpace=wrap;html=1;absoluteArcSize=1;arcSize=14;strokeWidth=2;" parent="1" vertex="1">
          <mxGeometry x="1590" y="32" width="100" height="100" as="geometry" />
        </mxCell>
        <mxCell id="9uR6d-uMpD3ZoMTiej-W-40" style="edgeStyle=orthogonalEdgeStyle;rounded=0;orthogonalLoop=1;jettySize=auto;html=1;entryX=0;entryY=0.5;entryDx=0;entryDy=0;" parent="1" source="9uR6d-uMpD3ZoMTiej-W-37" target="9uR6d-uMpD3ZoMTiej-W-39" edge="1">
          <mxGeometry relative="1" as="geometry" />
        </mxCell>
        <mxCell id="9uR6d-uMpD3ZoMTiej-W-37" value="display survey" style="rounded=1;whiteSpace=wrap;html=1;absoluteArcSize=1;arcSize=14;strokeWidth=2;" parent="1" vertex="1">
          <mxGeometry x="1770" y="32" width="100" height="100" as="geometry" />
        </mxCell>
        <mxCell id="9uR6d-uMpD3ZoMTiej-W-41" style="edgeStyle=orthogonalEdgeStyle;rounded=0;orthogonalLoop=1;jettySize=auto;html=1;jumpStyle=arc;entryX=1;entryY=0.5;entryDx=0;entryDy=0;" parent="1" source="9uR6d-uMpD3ZoMTiej-W-39" target="9uR6d-uMpD3ZoMTiej-W-42" edge="1">
          <mxGeometry relative="1" as="geometry">
            <mxPoint x="1290" y="201" as="targetPoint" />
            <Array as="points">
              <mxPoint x="1990" y="201" />
              <mxPoint x="1280" y="201" />
            </Array>
          </mxGeometry>
        </mxCell>
        <mxCell id="9uR6d-uMpD3ZoMTiej-W-39" value="send results to server; add appropriate points to user account" style="rounded=1;whiteSpace=wrap;html=1;absoluteArcSize=1;arcSize=14;strokeWidth=2;" parent="1" vertex="1">
          <mxGeometry x="1940" y="32" width="100" height="100" as="geometry" />
        </mxCell>
        <mxCell id="9uR6d-uMpD3ZoMTiej-W-43" style="edgeStyle=orthogonalEdgeStyle;rounded=0;orthogonalLoop=1;jettySize=auto;html=1;" parent="1" source="9uR6d-uMpD3ZoMTiej-W-42" target="9uR6d-uMpD3ZoMTiej-W-20" edge="1">
          <mxGeometry relative="1" as="geometry" />
        </mxCell>
        <mxCell id="9uR6d-uMpD3ZoMTiej-W-42" value="toast message" style="rounded=1;whiteSpace=wrap;html=1;absoluteArcSize=1;arcSize=14;strokeWidth=2;" parent="1" vertex="1">
          <mxGeometry x="1180" y="151" width="100" height="100" as="geometry" />
        </mxCell>
        <mxCell id="9uR6d-uMpD3ZoMTiej-W-47" style="edgeStyle=orthogonalEdgeStyle;rounded=0;orthogonalLoop=1;jettySize=auto;html=1;entryX=0.5;entryY=0;entryDx=0;entryDy=0;" parent="1" source="9uR6d-uMpD3ZoMTiej-W-44" target="9uR6d-uMpD3ZoMTiej-W-46" edge="1">
          <mxGeometry relative="1" as="geometry" />
        </mxCell>
        <mxCell id="9uR6d-uMpD3ZoMTiej-W-44" value="send points to pantry link" style="rounded=1;whiteSpace=wrap;html=1;absoluteArcSize=1;arcSize=14;strokeWidth=2;" parent="1" vertex="1">
          <mxGeometry x="1590" y="280" width="100" height="100" as="geometry" />
        </mxCell>
        <mxCell id="9uR6d-uMpD3ZoMTiej-W-46" value="user cancels" style="rounded=1;whiteSpace=wrap;html=1;absoluteArcSize=1;arcSize=14;strokeWidth=2;" parent="1" vertex="1">
          <mxGeometry x="1590" y="480" width="100" height="100" as="geometry" />
        </mxCell>
        <mxCell id="9uR6d-uMpD3ZoMTiej-W-48" value="" style="shape=waypoint;sketch=0;fillStyle=solid;size=6;pointerEvents=1;points=[];fillColor=none;resizable=0;rotatable=0;perimeter=centerPerimeter;snapToPoint=1;" parent="1" vertex="1">
          <mxGeometry x="1220" y="520" width="20" height="20" as="geometry" />
        </mxCell>
        <mxCell id="9uR6d-uMpD3ZoMTiej-W-50" style="edgeStyle=orthogonalEdgeStyle;rounded=0;orthogonalLoop=1;jettySize=auto;html=1;entryX=0.856;entryY=0.489;entryDx=0;entryDy=0;entryPerimeter=0;" parent="1" source="9uR6d-uMpD3ZoMTiej-W-46" target="9uR6d-uMpD3ZoMTiej-W-48" edge="1">
          <mxGeometry relative="1" as="geometry" />
        </mxCell>
        <mxCell id="9uR6d-uMpD3ZoMTiej-W-51" style="edgeStyle=orthogonalEdgeStyle;rounded=0;orthogonalLoop=1;jettySize=auto;html=1;entryX=0.428;entryY=0.101;entryDx=0;entryDy=0;entryPerimeter=0;" parent="1" source="9uR6d-uMpD3ZoMTiej-W-48" target="9uR6d-uMpD3ZoMTiej-W-20" edge="1">
          <mxGeometry relative="1" as="geometry" />
        </mxCell>
        <mxCell id="9uR6d-uMpD3ZoMTiej-W-52" value="user makes selection" style="rounded=1;whiteSpace=wrap;html=1;absoluteArcSize=1;arcSize=14;strokeWidth=2;" parent="1" vertex="1">
          <mxGeometry x="1900" y="280" width="100" height="100" as="geometry" />
        </mxCell>
        <mxCell id="9uR6d-uMpD3ZoMTiej-W-58" style="edgeStyle=orthogonalEdgeStyle;rounded=0;orthogonalLoop=1;jettySize=auto;html=1;entryX=0;entryY=0.5;entryDx=0;entryDy=0;" parent="1" source="9uR6d-uMpD3ZoMTiej-W-54" target="9uR6d-uMpD3ZoMTiej-W-56" edge="1">
          <mxGeometry relative="1" as="geometry" />
        </mxCell>
        <mxCell id="9uR6d-uMpD3ZoMTiej-W-59" style="edgeStyle=orthogonalEdgeStyle;rounded=0;orthogonalLoop=1;jettySize=auto;html=1;entryX=0.5;entryY=0;entryDx=0;entryDy=0;" parent="1" source="9uR6d-uMpD3ZoMTiej-W-54" target="9uR6d-uMpD3ZoMTiej-W-57" edge="1">
          <mxGeometry relative="1" as="geometry" />
        </mxCell>
        <mxCell id="9uR6d-uMpD3ZoMTiej-W-54" value="has enough points?" style="strokeWidth=2;html=1;shape=mxgraph.flowchart.decision;whiteSpace=wrap;" parent="1" vertex="1">
          <mxGeometry x="2080" y="280" width="100" height="100" as="geometry" />
        </mxCell>
        <mxCell id="9uR6d-uMpD3ZoMTiej-W-55" style="edgeStyle=orthogonalEdgeStyle;rounded=0;orthogonalLoop=1;jettySize=auto;html=1;entryX=0;entryY=0.5;entryDx=0;entryDy=0;entryPerimeter=0;" parent="1" source="9uR6d-uMpD3ZoMTiej-W-52" target="9uR6d-uMpD3ZoMTiej-W-54" edge="1">
          <mxGeometry relative="1" as="geometry" />
        </mxCell>
        <mxCell id="9uR6d-uMpD3ZoMTiej-W-62" style="edgeStyle=orthogonalEdgeStyle;rounded=0;orthogonalLoop=1;jettySize=auto;html=1;entryX=0;entryY=0.5;entryDx=0;entryDy=0;" parent="1" source="9uR6d-uMpD3ZoMTiej-W-56" target="9uR6d-uMpD3ZoMTiej-W-61" edge="1">
          <mxGeometry relative="1" as="geometry" />
        </mxCell>
        <mxCell id="9uR6d-uMpD3ZoMTiej-W-56" value="yes" style="text;html=1;align=center;verticalAlign=middle;whiteSpace=wrap;rounded=0;" parent="1" vertex="1">
          <mxGeometry x="2230" y="315" width="60" height="30" as="geometry" />
        </mxCell>
        <mxCell id="9uR6d-uMpD3ZoMTiej-W-60" style="edgeStyle=orthogonalEdgeStyle;rounded=0;orthogonalLoop=1;jettySize=auto;html=1;entryX=0.5;entryY=1;entryDx=0;entryDy=0;" parent="1" source="9uR6d-uMpD3ZoMTiej-W-57" target="9uR6d-uMpD3ZoMTiej-W-52" edge="1">
          <mxGeometry relative="1" as="geometry" />
        </mxCell>
        <mxCell id="9uR6d-uMpD3ZoMTiej-W-57" value="no" style="text;html=1;align=center;verticalAlign=middle;whiteSpace=wrap;rounded=0;" parent="1" vertex="1">
          <mxGeometry x="2100" y="430" width="60" height="30" as="geometry" />
        </mxCell>
        <mxCell id="9uR6d-uMpD3ZoMTiej-W-61" value="deduct points, log transaction" style="rounded=1;whiteSpace=wrap;html=1;absoluteArcSize=1;arcSize=14;strokeWidth=2;" parent="1" vertex="1">
          <mxGeometry x="2340" y="280" width="100" height="100" as="geometry" />
        </mxCell>
        <mxCell id="9uR6d-uMpD3ZoMTiej-W-69" value="verify pantry link code" style="rounded=1;whiteSpace=wrap;html=1;absoluteArcSize=1;arcSize=14;strokeWidth=2;" parent="1" vertex="1">
          <mxGeometry x="750" y="280" width="100" height="100" as="geometry" />
        </mxCell>
        <mxCell id="9uR6d-uMpD3ZoMTiej-W-72" style="edgeStyle=orthogonalEdgeStyle;rounded=0;orthogonalLoop=1;jettySize=auto;html=1;entryX=0;entryY=0.5;entryDx=0;entryDy=0;" parent="1" source="9uR6d-uMpD3ZoMTiej-W-70" target="9uR6d-uMpD3ZoMTiej-W-69" edge="1">
          <mxGeometry relative="1" as="geometry" />
        </mxCell>
        <mxCell id="9uR6d-uMpD3ZoMTiej-W-70" value="" style="shape=waypoint;sketch=0;fillStyle=solid;size=6;pointerEvents=1;points=[];fillColor=none;resizable=0;rotatable=0;perimeter=centerPerimeter;snapToPoint=1;" parent="1" vertex="1">
          <mxGeometry x="630" y="320" width="20" height="20" as="geometry" />
        </mxCell>
        <mxCell id="9uR6d-uMpD3ZoMTiej-W-71" style="edgeStyle=orthogonalEdgeStyle;rounded=0;orthogonalLoop=1;jettySize=auto;html=1;entryX=0.36;entryY=0.605;entryDx=0;entryDy=0;entryPerimeter=0;" parent="1" source="9uR6d-uMpD3ZoMTiej-W-26" target="9uR6d-uMpD3ZoMTiej-W-70" edge="1">
          <mxGeometry relative="1" as="geometry" />
        </mxCell>
        <mxCell id="9uR6d-uMpD3ZoMTiej-W-74" value="signup workflow" style="rounded=1;whiteSpace=wrap;html=1;absoluteArcSize=1;arcSize=14;strokeWidth=2;" parent="1" vertex="1">
          <mxGeometry x="590" y="480" width="100" height="100" as="geometry" />
        </mxCell>
        <mxCell id="9uR6d-uMpD3ZoMTiej-W-76" style="edgeStyle=orthogonalEdgeStyle;rounded=0;orthogonalLoop=1;jettySize=auto;html=1;entryX=0.606;entryY=0.269;entryDx=0;entryDy=0;entryPerimeter=0;" parent="1" source="9uR6d-uMpD3ZoMTiej-W-74" target="9uR6d-uMpD3ZoMTiej-W-70" edge="1">
          <mxGeometry relative="1" as="geometry" />
        </mxCell>
        <mxCell id="9uR6d-uMpD3ZoMTiej-W-81" style="edgeStyle=orthogonalEdgeStyle;rounded=0;orthogonalLoop=1;jettySize=auto;html=1;entryX=0;entryY=0.5;entryDx=0;entryDy=0;" parent="1" source="9uR6d-uMpD3ZoMTiej-W-77" target="9uR6d-uMpD3ZoMTiej-W-78" edge="1">
          <mxGeometry relative="1" as="geometry" />
        </mxCell>
        <mxCell id="9uR6d-uMpD3ZoMTiej-W-82" style="edgeStyle=orthogonalEdgeStyle;rounded=0;orthogonalLoop=1;jettySize=auto;html=1;entryX=0.5;entryY=0;entryDx=0;entryDy=0;" parent="1" source="9uR6d-uMpD3ZoMTiej-W-77" target="9uR6d-uMpD3ZoMTiej-W-79" edge="1">
          <mxGeometry relative="1" as="geometry" />
        </mxCell>
        <mxCell id="9uR6d-uMpD3ZoMTiej-W-77" value="is code good?" style="strokeWidth=2;html=1;shape=mxgraph.flowchart.decision;whiteSpace=wrap;" parent="1" vertex="1">
          <mxGeometry x="930" y="280" width="100" height="100" as="geometry" />
        </mxCell>
        <mxCell id="9uR6d-uMpD3ZoMTiej-W-83" style="edgeStyle=orthogonalEdgeStyle;rounded=0;orthogonalLoop=1;jettySize=auto;html=1;" parent="1" source="9uR6d-uMpD3ZoMTiej-W-78" target="9uR6d-uMpD3ZoMTiej-W-20" edge="1">
          <mxGeometry relative="1" as="geometry" />
        </mxCell>
        <mxCell id="9uR6d-uMpD3ZoMTiej-W-78" value="yes" style="text;html=1;align=center;verticalAlign=middle;whiteSpace=wrap;rounded=0;" parent="1" vertex="1">
          <mxGeometry x="1080" y="315" width="60" height="30" as="geometry" />
        </mxCell>
        <mxCell id="9uR6d-uMpD3ZoMTiej-W-85" style="edgeStyle=orthogonalEdgeStyle;rounded=0;orthogonalLoop=1;jettySize=auto;html=1;entryX=0.5;entryY=0;entryDx=0;entryDy=0;" parent="1" source="9uR6d-uMpD3ZoMTiej-W-79" target="9uR6d-uMpD3ZoMTiej-W-84" edge="1">
          <mxGeometry relative="1" as="geometry" />
        </mxCell>
        <mxCell id="9uR6d-uMpD3ZoMTiej-W-79" value="no" style="text;html=1;align=center;verticalAlign=middle;whiteSpace=wrap;rounded=0;" parent="1" vertex="1">
          <mxGeometry x="950" y="410" width="60" height="30" as="geometry" />
        </mxCell>
        <mxCell id="9uR6d-uMpD3ZoMTiej-W-80" style="edgeStyle=orthogonalEdgeStyle;rounded=0;orthogonalLoop=1;jettySize=auto;html=1;entryX=0;entryY=0.5;entryDx=0;entryDy=0;entryPerimeter=0;" parent="1" source="9uR6d-uMpD3ZoMTiej-W-69" target="9uR6d-uMpD3ZoMTiej-W-77" edge="1">
          <mxGeometry relative="1" as="geometry" />
        </mxCell>
        <mxCell id="9uR6d-uMpD3ZoMTiej-W-84" value="display error message" style="rounded=1;whiteSpace=wrap;html=1;absoluteArcSize=1;arcSize=14;strokeWidth=2;fillColor=#f8cecc;strokeColor=#b85450;" parent="1" vertex="1">
          <mxGeometry x="930" y="480" width="100" height="100" as="geometry" />
        </mxCell>
        <mxCell id="Iiw8XGKTQNkMXttHudwF-1" value="user clicks on Pantry Link icon on map" style="rounded=1;whiteSpace=wrap;html=1;absoluteArcSize=1;arcSize=14;strokeWidth=2;fillColor=#d5e8d4;strokeColor=#82b366;" parent="1" vertex="1">
          <mxGeometry x="80" y="630" width="100" height="100" as="geometry" />
        </mxCell>
        <mxCell id="Iiw8XGKTQNkMXttHudwF-2" style="edgeStyle=orthogonalEdgeStyle;rounded=0;orthogonalLoop=1;jettySize=auto;html=1;entryX=0.313;entryY=0.678;entryDx=0;entryDy=0;entryPerimeter=0;" parent="1" source="Iiw8XGKTQNkMXttHudwF-1" target="9uR6d-uMpD3ZoMTiej-W-48" edge="1">
          <mxGeometry relative="1" as="geometry">
            <Array as="points">
              <mxPoint x="1130" y="680" />
              <mxPoint x="1130" y="530" />
            </Array>
          </mxGeometry>
        </mxCell>
        <mxCell id="Iiw8XGKTQNkMXttHudwF-11" style="edgeStyle=orthogonalEdgeStyle;rounded=0;orthogonalLoop=1;jettySize=auto;html=1;entryX=0;entryY=0.5;entryDx=0;entryDy=0;" parent="1" source="Iiw8XGKTQNkMXttHudwF-3" target="9uR6d-uMpD3ZoMTiej-W-52" edge="1">
          <mxGeometry relative="1" as="geometry" />
        </mxCell>
        <mxCell id="Iiw8XGKTQNkMXttHudwF-12" style="edgeStyle=orthogonalEdgeStyle;rounded=0;orthogonalLoop=1;jettySize=auto;html=1;entryX=0.5;entryY=0;entryDx=0;entryDy=0;" parent="1" source="Iiw8XGKTQNkMXttHudwF-3" target="Iiw8XGKTQNkMXttHudwF-5" edge="1">
          <mxGeometry relative="1" as="geometry" />
        </mxCell>
        <mxCell id="Iiw8XGKTQNkMXttHudwF-3" value="" style="shape=waypoint;sketch=0;fillStyle=solid;size=6;pointerEvents=1;points=[];fillColor=none;resizable=0;rotatable=0;perimeter=centerPerimeter;snapToPoint=1;" parent="1" vertex="1">
          <mxGeometry x="1780" y="320" width="20" height="20" as="geometry" />
        </mxCell>
        <mxCell id="Iiw8XGKTQNkMXttHudwF-8" style="edgeStyle=orthogonalEdgeStyle;rounded=0;orthogonalLoop=1;jettySize=auto;html=1;" parent="1" source="Iiw8XGKTQNkMXttHudwF-4" target="9uR6d-uMpD3ZoMTiej-W-48" edge="1">
          <mxGeometry relative="1" as="geometry" />
        </mxCell>
        <mxCell id="Iiw8XGKTQNkMXttHudwF-4" value="" style="shape=waypoint;sketch=0;fillStyle=solid;size=6;pointerEvents=1;points=[];fillColor=none;resizable=0;rotatable=0;perimeter=centerPerimeter;snapToPoint=1;" parent="1" vertex="1">
          <mxGeometry x="1780" y="620" width="20" height="20" as="geometry" />
        </mxCell>
        <mxCell id="Iiw8XGKTQNkMXttHudwF-5" value="user times out" style="rounded=1;whiteSpace=wrap;html=1;absoluteArcSize=1;arcSize=14;strokeWidth=2;" parent="1" vertex="1">
          <mxGeometry x="1740" y="480" width="100" height="100" as="geometry" />
        </mxCell>
        <mxCell id="Iiw8XGKTQNkMXttHudwF-6" style="edgeStyle=orthogonalEdgeStyle;rounded=0;orthogonalLoop=1;jettySize=auto;html=1;entryX=0.9;entryY=0.243;entryDx=0;entryDy=0;entryPerimeter=0;" parent="1" source="9uR6d-uMpD3ZoMTiej-W-61" target="Iiw8XGKTQNkMXttHudwF-4" edge="1">
          <mxGeometry relative="1" as="geometry">
            <Array as="points">
              <mxPoint x="2390" y="630" />
            </Array>
          </mxGeometry>
        </mxCell>
        <mxCell id="Iiw8XGKTQNkMXttHudwF-7" style="edgeStyle=orthogonalEdgeStyle;rounded=0;orthogonalLoop=1;jettySize=auto;html=1;entryX=0.5;entryY=0.5;entryDx=0;entryDy=0;entryPerimeter=0;" parent="1" source="Iiw8XGKTQNkMXttHudwF-5" target="Iiw8XGKTQNkMXttHudwF-4" edge="1">
          <mxGeometry relative="1" as="geometry" />
        </mxCell>
        <mxCell id="Iiw8XGKTQNkMXttHudwF-9" style="edgeStyle=orthogonalEdgeStyle;rounded=0;orthogonalLoop=1;jettySize=auto;html=1;entryX=0.267;entryY=0.5;entryDx=0;entryDy=0;entryPerimeter=0;" parent="1" source="9uR6d-uMpD3ZoMTiej-W-44" target="Iiw8XGKTQNkMXttHudwF-3" edge="1">
          <mxGeometry relative="1" as="geometry" />
        </mxCell>
      </root>
    </mxGraphModel>
  </diagram>
</mxfile>
